<?xml version="1.0" standalone="no"?>
<!DOCTYPE svg PUBLIC "-//W3C//DTD SVG 20010904//EN"
 "http://www.w3.org/TR/2001/REC-SVG-20010904/DTD/svg10.dtd">
<svg version="1.0" xmlns="http://www.w3.org/2000/svg"
 width="513.000000pt" height="518.000000pt" viewBox="0 0 513.000000 518.000000"
 preserveAspectRatio="xMidYMid meet">

<g transform="translate(0.000000,518.000000) scale(0.100000,-0.100000)"
fill="#000000" stroke="none">
<path d="M2345 4739 c-248 -27 -498 -99 -720 -208 -431 -213 -765 -546 -975
-976 -471 -961 -157 -2114 737 -2710 250 -167 551 -283 864 -332 168 -26 481
-24 649 5 374 64 710 215 1001 450 89 73 249 233 320 322 256 319 418 721 458
1134 37 379 -34 773 -203 1121 -208 427 -546 769 -974 984 -177 89 -390 157
-596 192 -142 23 -427 33 -561 18z m-80 -1042 c42 -24 1146 -858 1198 -906 49
-44 71 -98 71 -171 0 -73 -22 -127 -71 -171 -15 -14 -179 -140 -363 -280 -184
-139 -438 -332 -565 -428 -284 -216 -301 -226 -380 -225 -98 1 -172 51 -214
144 -20 44 -21 61 -21 960 0 899 1 916 21 960 60 132 203 184 324 117z"/>
</g>
</svg>
